<svg viewBox="0 0 24 24" xmlns="http://www.w3.org/2000/svg">
	<path
		d="M15.9687 14.4518L17.0799 13.3893C17.2535 13.2233 17.5556 13.3395 17.5556 13.5786V18.4063C17.5556 19.2862 16.809 20 15.8889 20H3.66667C2.74653 20 2 19.2862 2 18.4063V6.7188C2 5.83892 2.74653 5.12505 3.66667 5.12505H13.1632C13.4097 5.12505 13.5347 5.4106 13.3611 5.57993L12.25 6.64243C12.1979 6.69224 12.1285 6.7188 12.0521 6.7188H3.66667V18.4063H15.8889V14.6377C15.8889 14.568 15.9167 14.5016 15.9687 14.4518ZM21.4062 7.75142L12.2882 16.4706L9.1493 16.8026C8.23958 16.8989 7.46528 16.1651 7.56597 15.2885L7.91319 12.287L17.0312 3.56782C17.8264 2.80747 19.1111 2.80747 19.9028 3.56782L21.4028 5.0022C22.1979 5.76255 22.1979 6.99439 21.4062 7.75142ZM17.9757 8.77739L15.9583 6.84829L9.50694 13.0208L9.25347 15.1889L11.5208 14.9465L17.9757 8.77739ZM20.2257 6.1311L18.7257 4.69673C18.5833 4.5606 18.3507 4.5606 18.2118 4.69673L17.1389 5.7227L19.1562 7.65181L20.2292 6.62583C20.3681 6.48638 20.3681 6.26724 20.2257 6.1311Z"
		fill="currentColor"/>
</svg>
